HIERARCHY
ROOT root
{
	OFFSET 0.000000 0.000000 0.000000
	CHANNELS 6 Xposition Yposition Zposition Zrotation Yrotation Xrotation
	JOINT lhip
	{
		OFFSET 0.058581 -0.082280 -0.017664
		CHANNELS 3 Zrotation Yrotation Xrotation
		JOINT lknee
		{
			OFFSET 0.043451 -0.386469 0.008037
			CHANNELS 3 Zrotation Yrotation Xrotation
			JOINT lankle
			{
				OFFSET -0.014790 -0.426874 -0.037428
				CHANNELS 3 Zrotation Yrotation Xrotation
				JOINT ltoe
				{
					OFFSET 0.041054 -0.060286 0.122042
					CHANNELS 3 Zrotation Yrotation Xrotation
					End Site
					{
						OFFSET 0.000000 0.000000 0.000000
					}
				}
			}
		}
	}
	JOINT rhip
	{
		OFFSET -0.060310 -0.090513 -0.013543
		CHANNELS 3 Zrotation Yrotation Xrotation
		JOINT rknee
		{
			OFFSET -0.043257 -0.383688 -0.004843
			CHANNELS 3 Zrotation Yrotation Xrotation
			JOINT rankle
			{
				OFFSET 0.019056 -0.420046 -0.034562
				CHANNELS 3 Zrotation Yrotation Xrotation
				JOINT rtoe
				{
					OFFSET -0.034840 -0.062106 0.130323
					CHANNELS 3 Zrotation Yrotation Xrotation
					End Site
					{
						OFFSET 0.000000 0.000000 0.000000
					}
				}
			}
		}
	}
	JOINT lowerback
	{
		OFFSET 0.004439 0.124404 -0.038385
		CHANNELS 3 Zrotation Yrotation Xrotation
		JOINT upperback
		{
			OFFSET 0.004488 0.137956 0.026820
			CHANNELS 3 Zrotation Yrotation Xrotation
			JOINT chest
			{
				OFFSET -0.002265 0.056032 0.002855
				CHANNELS 3 Zrotation Yrotation Xrotation
				JOINT lowerneck
				{
					OFFSET -0.013390 0.211636 -0.033468
					CHANNELS 3 Zrotation Yrotation Xrotation
					JOINT upperneck
					{
						OFFSET 0.010113 0.088937 0.050410
						CHANNELS 3 Zrotation Yrotation Xrotation
						End Site
						{
							OFFSET 0.000000 0.000000 0.000000
						}
					}
				}
				JOINT lclavicle
				{
					OFFSET 0.071702 0.114000 -0.018898
					CHANNELS 3 Zrotation Yrotation Xrotation
					JOINT lshoulder
					{
						OFFSET 0.122921 0.045205 -0.019046
						CHANNELS 3 Zrotation Yrotation Xrotation
						JOINT lelbow
						{
							OFFSET 0.255332 -0.015649 -0.022946
							CHANNELS 3 Zrotation Yrotation Xrotation
							JOINT lwrist
							{
								OFFSET 0.265709 0.012698 -0.007375
								CHANNELS 3 Zrotation Yrotation Xrotation
								End Site
								{
									OFFSET 0.000000 0.000000 0.000000
								}
							}
						}
					}
				}
				JOINT rclavicle
				{
					OFFSET -0.082954 0.112472 -0.023707
					CHANNELS 3 Zrotation Yrotation Xrotation
					JOINT rshoulder
					{
						OFFSET -0.113228 0.046853 -0.008472
						CHANNELS 3 Zrotation Yrotation Xrotation
						JOINT relbow
						{
							OFFSET -0.260127 -0.014369 -0.031269
							CHANNELS 3 Zrotation Yrotation Xrotation
							JOINT rwrist
							{
								OFFSET -0.269108 0.006794 -0.006027
								CHANNELS 3 Zrotation Yrotation Xrotation
								End Site
								{
									OFFSET 0.000000 0.000000 0.000000
								}
							}
						}
					}
				}
			}
		}
	}
}
MOTION
Frames: 13
Frame Time: 0.033333
0.219093 1.741336 1.028248 -1.640497 2.104876 91.319536 0.708374 1.009330 -5.357318 -2.509269 0.294591 4.960355 6.310550 11.827881 14.869031 0.000000 -0.000000 0.000000 2.296598 0.029056 -7.746755 4.492363 -4.766589 3.106941 -0.186772 -5.029656 -5.248811 0.000000 -0.000000 0.000000 -1.534516 0.803514 12.804650 1.974089 -0.841046 0.739361 1.597237 0.690565 -2.094227 3.959474 -14.622467 -2.883509 6.895092 -18.363164 2.220899 -23.556006 0.497457 1.168165 -54.727030 -11.169570 8.207236 15.850221 -21.306933 -3.576447 -0.738174 -3.521246 -7.429424 19.947789 5.298254 -0.041507 52.185545 9.121533 14.741599 -7.379098 25.737641 9.792401 4.682074 1.461798 -2.844754 
0.217625 1.739209 1.028079 -1.652243 2.029271 90.987422 0.819952 1.408976 -4.708674 -2.874058 -0.335047 5.122424 5.977210 11.703710 12.000624 0.000000 -0.000000 0.000000 2.182681 -0.194133 -7.165325 5.015267 -3.664817 3.065024 0.307435 -6.071222 -5.710855 0.000000 -0.000000 0.000000 -1.375627 0.769105 13.545429 1.926166 -0.741912 -0.058609 1.323560 0.474807 -1.724016 4.713843 -14.454923 -4.121371 5.816257 -18.555213 3.260266 -23.887824 0.641740 0.995279 -53.636582 -11.118464 7.258255 14.628277 -22.852583 -2.527679 -2.817422 -2.884816 -6.963472 19.873892 5.461043 -1.035264 52.672681 8.136670 16.099923 -7.849701 25.068629 5.668497 4.695943 0.497529 -0.714764 
0.216088 1.736989 1.027990 -1.739672 1.991505 90.903547 0.907597 1.573672 -4.377187 -3.124852 -0.978266 5.319719 5.311169 11.746313 8.935053 0.000000 -0.000000 0.000000 2.197307 -0.255331 -7.068263 5.133282 -3.697333 3.386094 0.637775 -6.042593 -6.022438 0.000000 -0.000000 0.000000 -1.468085 0.775553 13.670534 1.942482 -0.727922 -0.081961 1.313807 0.492421 -1.814779 4.887744 -14.154523 -4.306932 5.672388 -18.622991 3.445862 -23.921756 0.616412 0.833910 -53.520430 -11.259411 7.065042 14.418871 -23.633427 -2.441847 -2.625471 -2.928639 -6.670182 20.007654 5.397435 -1.133993 52.617238 7.716111 16.082507 -7.856178 24.639130 5.239277 4.659416 0.489038 -0.325110 
0.213880 1.733521 1.026953 -1.902733 1.935416 90.942815 1.131066 1.841386 -3.991734 -3.613022 -1.916255 5.448321 3.788962 11.711264 4.554621 0.000000 -0.000000 0.000000 2.230818 -0.287872 -7.140466 5.235142 -3.910318 3.898978 1.172706 -5.821392 -6.406560 0.000000 -0.000000 0.000000 -1.489923 0.756797 13.799421 1.931873 -0.853370 -0.210671 1.266932 0.524658 -1.855174 5.098578 -13.650447 -4.616547 5.573836 -18.714525 3.595470 -24.052694 0.528390 0.524764 -53.350935 -11.423770 6.984388 14.268257 -24.734851 -2.552671 -2.024270 -3.044372 -6.234849 20.253675 5.316681 -1.165716 52.412240 7.303292 15.832281 -7.750213 24.203718 5.073852 4.611373 0.562944 0.020384 
0.213170 1.732289 1.026380 -1.954227 1.929912 91.004591 1.236235 1.900275 -3.898332 -3.807713 -2.238201 5.460203 3.208325 11.690161 3.053531 0.000000 -0.000000 0.000000 2.257297 -0.311753 -7.236926 5.264328 -4.002391 4.100838 1.362052 -5.757531 -6.549413 0.000000 -0.000000 0.000000 -1.457183 0.729638 13.849586 1.927590 -0.923973 -0.325359 1.247982 0.529430 -1.832058 5.175917 -13.467781 -4.764629 5.519072 -18.733377 3.674347 -24.126577 0.492096 0.404174 -53.297635 -11.449048 7.007311 14.262189 -25.122343 -2.650089 -1.838369 -3.072999 -6.139502 20.333761 5.290374 -1.179497 52.321081 7.197096 15.746573 -7.696049 24.124268 5.099276 4.599141 0.582904 0.138137 
0.211709 1.729502 1.025438 -2.031169 1.947488 91.140484 1.425487 1.899575 -3.727161 -4.133217 -2.885500 5.565377 2.358897 11.690859 0.221531 0.000000 -0.000000 0.000000 2.328335 -0.390616 -7.465553 5.357254 -4.149916 4.630417 1.734819 -5.719970 -6.950744 0.000000 -0.000000 0.000000 -1.348675 0.648401 13.920090 1.936663 -1.069455 -0.565717 1.198884 0.511269 -1.776073 5.307721 -13.037233 -5.017337 5.331001 -18.674319 3.944946 -24.285990 0.413910 0.209335 -53.199848 -11.485091 7.067492 14.257935 -25.861242 -2.805749 -1.626737 -3.135814 -6.119114 20.494389 5.228547 -1.228196 52.143542 6.989478 15.630235 -7.609908 24.026517 5.181006 4.594776 0.572055 0.323461 
0.210044 1.725908 1.024638 -2.111680 2.011767 91.219868 1.643454 1.813671 -3.452781 -4.404720 -3.566064 5.748272 1.639958 11.759807 -2.515139 0.000000 -0.000000 0.000000 2.436040 -0.465300 -7.659584 5.487425 -4.252893 5.365372 2.109667 -5.770459 -7.473211 0.000000 -0.000000 0.000000 -1.234081 0.535793 13.865459 2.005771 -1.226872 -0.615088 1.142986 0.475658 -1.747623 5.380595 -12.368141 -5.134306 5.045244 -18.379725 4.429369 -24.401808 0.347164 0.091832 -53.139885 -11.514633 7.099050 14.267243 -26.457725 -2.970726 -1.473627 -3.180808 -6.296012 20.701944 5.193027 -1.249405 51.938026 6.830043 15.565270 -7.611752 24.008960 5.194072 4.575792 0.543637 0.406996 
0.207970 1.721327 1.023921 -2.309551 2.087272 91.215943 1.919412 1.712207 -3.037554 -4.738719 -4.292909 6.020680 0.829483 11.901960 -5.476686 0.000000 -0.000000 0.000000 2.565991 -0.398682 -7.817991 5.618145 -4.307354 6.353797 2.499842 -5.853893 -8.128707 0.000000 -0.000000 0.000000 -1.186188 0.398859 13.701193 2.124850 -1.382878 -0.488118 1.084020 0.439085 -1.750119 5.453526 -11.324915 -5.138362 4.640445 -17.756899 5.248451 -24.481541 0.345619 0.027116 -53.060747 -11.462735 7.105871 14.388133 -26.890639 -3.196226 -1.225841 -3.316836 -6.485721 21.022466 5.194116 -1.164542 51.673380 6.788297 15.521849 -7.694273 24.088047 5.124681 4.521343 0.476633 0.399352 
0.205508 1.716033 1.023118 -2.624216 2.150508 91.135235 2.230391 1.599177 -2.622454 -5.216604 -5.083509 6.583308 0.022017 12.060966 -8.919045 0.000000 -0.000000 0.000000 2.712562 -0.197193 -7.935672 5.733394 -4.337528 7.512726 2.912902 -5.889982 -8.915943 0.000000 -0.000000 0.000000 -1.218483 0.216372 13.609311 2.256224 -1.504428 -0.426315 1.050584 0.420806 -1.731493 5.581836 -9.908032 -5.039538 4.098304 -16.769855 6.408576 -24.583884 0.417219 -0.061914 -52.912718 -11.293460 7.106359 14.527959 -27.178304 -3.234052 -0.954400 -3.519604 -6.361731 21.424944 5.175343 -1.012815 51.370576 6.851403 15.498170 -7.774802 24.262108 5.095435 4.457100 0.368343 0.362460 
0.202778 1.710167 1.021988 -2.996105 2.186273 90.950933 2.545499 1.487872 -2.423651 -5.782876 -5.673729 7.810636 -0.712946 12.214212 -12.305804 0.000000 -0.000000 0.000000 2.865824 -0.046467 -7.928546 5.829678 -4.301788 8.727032 3.323088 -5.780164 -9.913367 0.000000 -0.000000 0.000000 -1.267642 0.034364 13.703641 2.365139 -1.622386 -0.551462 1.031853 0.403678 -1.631489 5.717199 -8.176796 -4.842864 3.457952 -15.446125 7.884806 -24.711035 0.566336 -0.249418 -52.731439 -11.029029 7.116761 14.623659 -27.305336 -3.023008 -0.479025 -3.691357 -5.841377 21.876051 5.082270 -0.891643 51.065094 6.987679 15.496933 -7.819374 24.498560 5.161411 4.109936 0.375017 0.494844 
0.199703 1.703539 1.020385 -3.423278 2.211147 90.622738 2.932977 1.364523 -2.618851 -6.443350 -5.647686 10.080442 -1.168760 12.445354 -14.693650 0.000000 -0.000000 0.000000 3.035298 0.014721 -7.643599 5.954100 -4.045388 9.837112 3.545060 -5.560403 -11.032003 0.000000 -0.000000 0.000000 -1.317995 -0.033956 13.894516 2.484262 -1.740054 -0.722478 1.027660 0.350533 -1.428976 5.826922 -6.322875 -4.569174 2.770503 -13.882240 9.540666 -24.791016 0.824261 -0.463649 -52.594959 -10.744720 7.119635 14.584710 -27.480145 -2.612596 0.051041 -3.777888 -5.552317 22.350824 4.885814 -0.794166 50.732568 7.205569 15.547060 -7.907658 24.890280 5.284634 3.127475 0.608455 0.792680 
0.196222 1.696229 1.018270 -3.948313 2.233954 90.159157 3.490379 1.252561 -3.469127 -7.321673 -4.644097 13.917563 -1.192445 12.728700 -15.827799 0.000000 -0.000000 0.000000 3.187885 0.012870 -7.069871 6.168118 -3.576019 10.855728 3.487859 -5.186856 -12.059293 0.000000 -0.000000 0.000000 -1.357137 0.086183 14.157371 2.626181 -1.866383 -0.821418 1.001160 0.309693 -1.203621 5.834442 -4.556714 -4.214693 2.202243 -12.144656 11.121576 -24.808761 1.172815 -0.656674 -52.472016 -10.464809 7.017498 14.565374 -27.817700 -2.234574 0.444354 -3.819027 -5.662811 22.764836 4.617476 -0.679602 50.415673 7.457871 15.614071 -7.869897 25.379093 5.487450 2.217330 0.862404 0.900872 
0.192481 1.688412 1.015729 -4.548688 2.256285 89.591243 4.248028 1.196335 -5.244879 -8.376573 -2.618267 19.810095 -0.952335 12.765256 -15.968832 0.000000 -0.000000 0.000000 3.301266 -0.102226 -6.230200 6.468932 -2.896986 11.771588 3.212604 -4.630302 -12.763541 0.000000 -0.000000 0.000000 -1.350922 0.407020 14.520384 2.780675 -2.031665 -0.813290 0.917766 0.350404 -1.016681 5.648227 -3.040198 -3.775234 1.887420 -10.326882 12.364342 -24.833820 1.487752 -0.806217 -52.296552 -10.211236 6.778670 14.648715 -28.265603 -1.968513 0.589427 -3.798021 -5.951339 23.078634 4.344333 -0.538172 50.144894 7.645359 15.638507 -7.620894 25.859568 5.773951 1.952789 0.847209 0.601696 
